<svg width="1155" height="1081" xmlns="http://www.w3.org/2000/svg" xmlns:xlink="http://www.w3.org/1999/xlink">
  <defs>
    <path id="a" d="M0 137.809h533.82V0H0z"/>
  </defs>
  <g fill="none" fill-rule="evenodd">
    <path d="M0 0l540 540 .001-.001L1080.003 1080H.003l-.003.003V0z" fill="#1E5A96"/>
    <path fill="#61B44B" d="M721.935 1080h360.13L902 899.935z"/>
    <path fill="#46BCC0" d="M973.967 1080h180.066L1064 989.967z"/>
    <g transform="translate(108 762)">
      <path d="M177.618 46.94h8.749c2.543 0 4.483.716 5.812 2.151 1.33 1.435 1.995 3.274 1.995 5.52 0 2.198-.664 3.997-1.995 5.398-1.33 1.401-3.27 2.098-5.812 2.098h-8.75V46.94zm23.012 19.63c3.52-3.043 5.28-7.052 5.28-12.028 0-4.953-1.76-8.96-5.28-12.029-3.515-3.064-8.272-4.599-14.263-4.599h-20.515v50.538h11.766V71.133h8.749c5.99 0 10.748-1.522 14.263-4.563zM252.317 71.029V37.915H240.55v33.114c0 3.124-.78 5.426-2.343 6.908-1.561 1.48-3.786 2.222-6.68 2.222-2.915 0-5.173-.748-6.768-2.24-1.596-1.492-2.395-3.787-2.395-6.89V37.915h-11.769v33.114c0 5.764 1.923 10.229 5.764 13.4 3.841 3.169 8.897 4.752 15.168 4.752 6.202 0 11.217-1.583 15.046-4.752 3.828-3.171 5.744-7.636 5.744-13.4M256.942 83.178v5.275h37.453V79.43H271.38l22.704-36.447v-5.068h-37.246v9.025h22.7zM335.208 42.982v-5.068h-37.246v9.025h22.703l-22.597 36.238v5.275h37.451V79.43h-23.013zM351.687 37.914H339.92v50.538h33.531V79.43h-21.763zM412.652 79.43h-23.36v-12.6h19.82v-9.026h-19.82V46.94h23.429v-9.026h-35.194v50.538h35.125z" fill="#FFF"/>
      <mask id="b" fill="#fff">
        <use xlink:href="#a"/>
      </mask>
      <path fill="#FFF" mask="url(#b)" d="M436.461 88.452h11.697V37.914h-11.697zM452.54 46.94h13.223v41.512h11.768V46.94h13.33v-9.025h-38.322zM507.162 49.423c1.528-2.141 3.623-3.212 6.285-3.212 3.144 0 5.373.798 6.68 2.395 1.307 1.597 2.042 4.038 2.205 7.325h11.42l.068-.21c-.44-5.924-2.347-10.493-5.729-13.711-3.377-3.215-8.259-4.824-14.644-4.824-6.019 0-10.904 1.927-14.664 5.78-3.763 3.853-5.643 8.833-5.643 14.943V68.46c0 6.13 1.956 11.118 5.867 14.959 3.911 3.84 8.99 5.76 15.237 5.76 6.225 0 10.972-1.558 14.25-4.682 3.271-3.126 5.027-7.65 5.258-13.574l-.069-.206h-11.422c-.16 3.285-.832 5.68-2.01 7.183-1.182 1.505-3.183 2.258-6.007 2.258-2.916 0-5.207-1.076-6.872-3.23-1.665-2.15-2.5-4.974-2.5-8.468V57.84c0-3.471.765-6.276 2.29-8.417M112.314 43.978c-2.246 6.706-9.469 26.826-9.469 26.826-2.417 6.556-16.553 6.5-35.747 6.556 0 0 12.403-1.752 15.986-8.676 3.585-6.919 7.807-20.945 7.807-20.945-19.095 0-20.797 6.688-20.797 6.688s-12.069 33.746-16.372 46.197c-33.439 0-28.096-16.517-28.096-16.517l16.728-46.922h33.887l-2.263 6.757s2.76-6.757 21.438-6.757c0 0 19.147.083 16.898 6.793M20.184 20.18c-26.912 26.91-26.912 70.538 0 97.447 26.91 26.91 70.535 26.908 97.443-.002 26.91-26.91 26.912-70.533 0-97.445-26.907-26.906-70.538-26.907-97.444 0M168.632 109.08c.553-.922 1.473-1.386 2.76-1.386.892 0 1.627.287 2.208.866.58.578.87 1.277.87 2.1h2.222l.023-.073c.034-1.355-.451-2.497-1.452-3.43-1.001-.928-2.291-1.391-3.871-1.391-1.952 0-3.448.64-4.49 1.923-1.043 1.283-1.564 2.883-1.564 4.8v.528c0 1.934.518 3.545 1.556 4.822 1.039 1.277 2.538 1.918 4.498 1.918 1.43 0 2.682-.453 3.759-1.355 1.077-.907 1.593-1.94 1.55-3.107l-.023-.073h-2.207c0 .73-.308 1.35-.928 1.85-.618.5-1.335.757-2.151.757-1.295 0-2.218-.46-2.765-1.377-.548-.917-.824-2.064-.824-3.44v-.527c0-1.345.276-2.476.829-3.404M186.732 105.766c-.821 0-1.572.176-2.25.541a4.95 4.95 0 00-1.712 1.513v-7.762h-2.455v19.438h2.455v-9.956a4.003 4.003 0 011.363-1.303 3.648 3.648 0 011.851-.48c.949 0 1.66.265 2.137.797.477.532.717 1.356.717 2.466v8.477h2.455v-8.45c0-1.794-.401-3.123-1.201-3.989-.803-.866-1.924-1.293-3.36-1.293M203.448 115.44c-.217.59-.681 1.11-1.395 1.565-.716.459-1.517.683-2.406.683-.732 0-1.284-.172-1.657-.521-.375-.35-.561-.82-.561-1.418 0-.667.297-1.251.892-1.752.59-.495 1.384-.745 2.372-.745h2.755v2.189zm2.455 1.34v-6.495c0-1.46-.466-2.58-1.397-3.357-.931-.777-2.158-1.162-3.688-1.162-1.546 0-2.805.406-3.782 1.219-.975.814-1.44 1.71-1.39 2.69l.027.079h2.34c0-.57.248-1.053.743-1.455.495-.401 1.136-.605 1.926-.605.879 0 1.56.23 2.044.694.482.459.722 1.084.722 1.877v1.329h-2.667c-1.785 0-3.201.365-4.243 1.095-1.043.724-1.564 1.73-1.564 3.018 0 1.267.368 2.257 1.102 2.97.735.72 1.804 1.08 3.209 1.08.847 0 1.64-.218 2.374-.651a5.765 5.765 0 001.789-1.626c.007.312.036.625.08.938.047.313.11.672.193 1.079h2.53a7.106 7.106 0 01-.272-1.32c-.05-.447-.076-.917-.076-1.396zM216.561 105.766c-.865 0-1.634.192-2.312.588a4.898 4.898 0 00-1.689 1.663l-.175-2.007h-2.192v13.486h2.455v-9.831a3.727 3.727 0 011.301-1.398c.545-.338 1.171-.51 1.877-.51.964 0 1.681.25 2.151.745.47.5.703 1.346.703 2.535v8.46h2.456v-8.513c0-1.778-.399-3.091-1.197-3.941-.797-.856-1.923-1.278-3.378-1.278M233.916 115.832c-.326.615-.735 1.089-1.236 1.428-.497.334-1.115.506-1.855.506-1.171 0-2.044-.412-2.617-1.235-.574-.824-.86-1.914-.86-3.264V113c0-1.532.29-2.794.873-3.774.58-.98 1.457-1.47 2.63-1.47.714 0 1.324.167 1.829.506.508.333.92.792 1.236 1.365v6.204zm.198-8.064a4.44 4.44 0 00-1.618-1.486c-.65-.345-1.4-.516-2.258-.516-1.668 0-2.977.662-3.926 1.99-.946 1.33-1.42 3.082-1.42 5.245v.266c0 1.934.474 3.498 1.42 4.697.949 1.194 2.248 1.793 3.902 1.793.798 0 1.505-.14 2.119-.427a4.323 4.323 0 001.583-1.277v1.517c0 1.116-.274 1.944-.816 2.487-.545.547-1.415.818-2.612.818a7.768 7.768 0 01-1.845-.23c-.623-.156-1.155-.354-1.595-.604l-.623 1.902a8.093 8.093 0 001.989.73c.75.183 1.45.27 2.098.27 1.895 0 3.344-.463 4.35-1.39 1.006-.93 1.509-2.252 1.509-3.983v-13.56h-1.957l-.3 1.758zM240.807 102.559h2.456v-2.502h-2.456zM240.807 119.496h2.456V106.01h-2.456zM254.08 105.766c-.865 0-1.634.192-2.312.588a4.898 4.898 0 00-1.69 1.663l-.174-2.007h-2.192v13.486h2.455v-9.831a3.727 3.727 0 011.3-1.398c.546-.338 1.172-.51 1.878-.51.964 0 1.68.25 2.15.745.47.5.704 1.346.704 2.535v8.46h2.456v-8.513c0-1.778-.4-3.091-1.197-3.941-.797-.856-1.923-1.278-3.378-1.278M271.421 115.832c-.326.615-.735 1.089-1.235 1.428-.498.334-1.116.506-1.856.506-1.171 0-2.044-.412-2.617-1.235-.574-.824-.86-1.914-.86-3.264V113c0-1.532.292-2.794.873-3.774s1.457-1.47 2.63-1.47c.714 0 1.324.167 1.83.506.508.333.92.792 1.235 1.365v6.204zm.198-8.064a4.432 4.432 0 00-1.618-1.486c-.649-.345-1.4-.516-2.258-.516-1.668 0-2.976.662-3.925 1.99-.946 1.33-1.421 3.082-1.421 5.245v.266c0 1.934.475 3.498 1.421 4.697.949 1.194 2.247 1.793 3.902 1.793.797 0 1.504-.14 2.119-.427a4.328 4.328 0 001.582-1.277v1.517c0 1.116-.273 1.944-.816 2.487-.544.547-1.415.818-2.612.818a7.768 7.768 0 01-1.845-.23c-.623-.156-1.155-.354-1.595-.604l-.623 1.902a8.123 8.123 0 001.989.73 8.89 8.89 0 002.098.27c1.895 0 3.344-.463 4.35-1.39 1.007-.93 1.51-2.252 1.51-3.983v-13.56h-1.958l-.3 1.758zM284.368 119.496h2.468V101.35h-2.468zM290.42 103.284h5.818v16.212h2.455v-16.212h5.834v-1.934H290.42zM318.373 99.791c-1.348 0-2.396.396-3.148 1.178-.751.787-1.126 1.898-1.126 3.336v1.705h-2.107v1.82h2.107v11.666h2.455V107.83h2.802v-1.82h-2.802v-1.705c0-.813.174-1.433.524-1.866.346-.427.878-.64 1.595-.64.232 0 .453.014.664.035.214.026.394.058.543.09l.3-1.867c-.35-.084-.668-.15-.954-.193a5.273 5.273 0 00-.853-.073M331.317 112.897c0 1.428-.302 2.606-.91 3.535-.607.933-1.496 1.397-2.666 1.397-1.189 0-2.086-.464-2.688-1.397-.602-.93-.902-2.107-.902-3.535v-.271c0-1.413.3-2.586.902-3.524.602-.938 1.492-1.408 2.661-1.408 1.182 0 2.076.47 2.688 1.408.61.938.915 2.11.915 3.524v.27zm-3.603-7.131c-1.853 0-3.317.64-4.399 1.934-1.08 1.292-1.619 2.935-1.619 4.93v.272c0 2.002.542 3.649 1.626 4.932 1.085 1.282 2.558 1.923 4.419 1.923 1.861 0 3.331-.641 4.41-1.918 1.082-1.277 1.621-2.924 1.621-4.937v-.271c0-2.002-.542-3.65-1.626-4.937-1.084-1.287-2.562-1.928-4.432-1.928zM343.317 105.766c-.73 0-1.375.192-1.937.584-.56.39-1.031.933-1.414 1.63l-.238-1.97h-2.192v13.486h2.455v-9.633c.24-.558.584-.99 1.028-1.299.445-.306.99-.458 1.639-.458l1.26.074.335-2.28a2.646 2.646 0 00-.411-.093 2.782 2.782 0 00-.524-.041M357.77 117.688a2.25 2.25 0 01-.465.052c-.433 0-.78-.13-1.043-.386-.261-.26-.391-.704-.391-1.334v-8.19h2.554v-1.82h-2.554v-3.252h-2.455v3.253h-2.143v1.819h2.143v8.19c0 1.287.294 2.23.883 2.835.592.6 1.384.902 2.383.902.357 0 .71-.047 1.063-.14.355-.1.623-.22.805-.37l-.323-1.684a2.55 2.55 0 01-.456.125M368.374 105.766c-.82 0-1.572.176-2.25.541a4.95 4.95 0 00-1.712 1.513v-7.762h-2.455v19.438h2.455v-9.956a4.003 4.003 0 011.363-1.303 3.65 3.65 0 011.851-.48c.95 0 1.66.265 2.137.797.477.532.717 1.356.717 2.466v8.477h2.456v-8.45c0-1.794-.402-3.123-1.202-3.989-.803-.866-1.924-1.293-3.36-1.293M385.473 111.395h-6.219l-.024-.062c.133-1.043.49-1.908 1.072-2.602.581-.693 1.284-1.037 2.106-1.037 1.013 0 1.777.323 2.293.97.514.646.772 1.45.772 2.408v.323zm-3.065-5.63c-1.562 0-2.914.636-4.056 1.908-1.145 1.277-1.715 2.878-1.715 4.796v.548c0 1.991.555 3.617 1.665 4.863 1.108 1.251 2.602 1.877 4.481 1.877 1.121 0 2.075-.156 2.864-.474.79-.319 1.426-.715 1.91-1.194l-.96-1.595c-.459.417-1 .74-1.627.98-.628.234-1.358.354-2.187.354-1.139 0-2.025-.417-2.656-1.25-.63-.835-.96-1.893-.986-3.186l.04-.063h8.747v-1.533c0-1.829-.464-3.294-1.394-4.389-.93-1.095-2.307-1.642-4.126-1.642zM406.088 113.267c0 1.35-.284 2.44-.847 3.264-.566.823-1.426 1.235-2.58 1.235-.782 0-1.429-.187-1.94-.563-.51-.375-.923-.892-1.237-1.56V109.8c.307-.62.719-1.12 1.237-1.491.522-.364 1.158-.552 1.913-.552 1.166 0 2.031.49 2.6 1.465.567.975.854 2.236.854 3.779v.266zm-2.831-7.501c-.839 0-1.571.156-2.199.469a4.292 4.292 0 00-1.574 1.37v-7.548h-2.456v19.439h2.007l.297-1.782c.433.672.978 1.183 1.634 1.527.655.344 1.429.516 2.318.516 1.637 0 2.922-.594 3.857-1.788.933-1.194 1.403-2.758 1.403-4.702V113c0-2.163-.467-3.915-1.397-5.244-.931-1.33-2.226-1.991-3.89-1.991zM420.573 111.395h-6.22l-.023-.062c.133-1.043.49-1.908 1.072-2.602.58-.693 1.285-1.037 2.106-1.037 1.014 0 1.777.323 2.294.97.513.646.77 1.45.77 2.408v.323zm-3.065-5.63c-1.561 0-2.914.636-4.056 1.908-1.145 1.277-1.715 2.878-1.715 4.796v.548c0 1.991.555 3.617 1.665 4.863 1.108 1.251 2.602 1.877 4.48 1.877 1.122 0 2.076-.156 2.866-.474.789-.319 1.426-.715 1.908-1.194l-.96-1.595a5.1 5.1 0 01-1.626.98c-.628.234-1.358.354-2.187.354-1.14 0-2.025-.417-2.656-1.25-.631-.835-.96-1.893-.986-3.186l.04-.063h8.747v-1.533c0-1.829-.464-3.294-1.394-4.389-.931-1.095-2.307-1.642-4.126-1.642zM431.747 117.688a2.252 2.252 0 01-.467.052c-.432 0-.779-.13-1.042-.386-.26-.26-.39-.704-.39-1.334v-8.19h2.553v-1.82h-2.554v-3.252h-2.455v3.253h-2.143v1.819h2.143v8.19c0 1.287.294 2.23.883 2.835.592.6 1.384.902 2.382.902.358 0 .712-.047 1.064-.14.354-.1.623-.22.805-.37l-.323-1.684a2.573 2.573 0 01-.456.125M441.628 117.688a2.252 2.252 0 01-.466.052c-.433 0-.78-.13-1.042-.386-.262-.26-.392-.704-.392-1.334v-8.19h2.555v-1.82h-2.555v-3.252h-2.454v3.253h-2.144v1.819h2.144v8.19c0 1.287.293 2.23.882 2.835.592.6 1.385.902 2.383.902.358 0 .712-.047 1.064-.14.353-.1.623-.22.805-.37l-.324-1.684a2.55 2.55 0 01-.456.125M453.736 111.395h-6.22l-.023-.062c.133-1.043.49-1.908 1.072-2.602.58-.693 1.285-1.037 2.106-1.037 1.014 0 1.777.323 2.294.97.513.646.77 1.45.77 2.408v.323zm-3.065-5.63c-1.561 0-2.914.636-4.056 1.908-1.145 1.277-1.715 2.878-1.715 4.796v.548c0 1.991.555 3.617 1.665 4.863 1.108 1.251 2.602 1.877 4.48 1.877 1.122 0 2.076-.156 2.865-.474.79-.319 1.426-.715 1.909-1.194l-.96-1.595a5.1 5.1 0 01-1.626.98c-.628.234-1.358.354-2.187.354-1.14 0-2.025-.417-2.656-1.25-.631-.835-.96-1.893-.986-3.186l.04-.063h8.748v-1.533c0-1.829-.465-3.294-1.395-4.389-.931-1.095-2.307-1.642-4.126-1.642zM465.598 105.766c-.73 0-1.376.192-1.937.584-.56.39-1.032.933-1.415 1.63l-.237-1.97h-2.192v13.486h2.455v-9.633c.24-.558.584-.99 1.027-1.299.446-.306.99-.458 1.64-.458l1.26.074.335-2.28a2.646 2.646 0 00-.412-.093 2.782 2.782 0 00-.524-.041"/>
    </g>
  </g>
</svg>
